PathFileType	4	(X/Y/Z)	C:\Users\Basilio\Documents\Thesis Gigler\squatting_fais\c3dfiles\038\SLS_back_pre1\markers_experimental.trc
DataRate	CameraRate	NumFrames	NumMarkers	Units	OrigDataRate	OrigDataStartFrame	OrigNumFrames
200.000000	200.000000	4	63	mm	200.000000	1267	1448
Frame#	Time	FHD			LBHD			RBHD			C7			T10			CLAV			LSHO			LUUPA			LMUPA			LDUPA			LLEP			LMEP			LUL			LRFIN			RSHO			RUPA1			RMUPA			RDUPA			RLEP			RMEP			RRAD			RUL			RUFIN			LASI			RASI			USACR			LSACR			RSACR			LTHI1			LTHI2			LTHI3			LTHI4			LLFC			LMFC			LTIB1			LTIB2			LTIB3			LTIB4			LLMAL			LMMAL			LHEE			LMT1			LMT2			LMT5			RTHI			RTHI2			RTHI3			RTHI4			RLFC			RMFC			RTIB1			RTIB2			RTIB3			RTIB4			RLMAL			RMMAL			RHEE			RMT1			RMT2			RMT5			LRAD			*61			*62			
		X1	Y1	Z1	X2	Y2	Z2	X3	Y3	Z3	X4	Y4	Z4	X5	Y5	Z5	X6	Y6	Z6	X7	Y7	Z7	X8	Y8	Z8	X9	Y9	Z9	X10	Y10	Z10	X11	Y11	Z11	X12	Y12	Z12	X13	Y13	Z13	X14	Y14	Z14	X15	Y15	Z15	X16	Y16	Z16	X17	Y17	Z17	X18	Y18	Z18	X19	Y19	Z19	X20	Y20	Z20	X21	Y21	Z21	X22	Y22	Z22	X23	Y23	Z23	X24	Y24	Z24	X25	Y25	Z25	X26	Y26	Z26	X27	Y27	Z27	X28	Y28	Z28	X29	Y29	Z29	X30	Y30	Z30	X31	Y31	Z31	X32	Y32	Z32	X33	Y33	Z33	X34	Y34	Z34	X35	Y35	Z35	X36	Y36	Z36	X37	Y37	Z37	X38	Y38	Z38	X39	Y39	Z39	X40	Y40	Z40	X41	Y41	Z41	X42	Y42	Z42	X43	Y43	Z43	X44	Y44	Z44	X45	Y45	Z45	X46	Y46	Z46	X47	Y47	Z47	X48	Y48	Z48	X49	Y49	Z49	X50	Y50	Z50	X51	Y51	Z51	X52	Y52	Z52	X53	Y53	Z53	X54	Y54	Z54	X55	Y55	Z55	X56	Y56	Z56	X57	Y57	Z57	X58	Y58	Z58	X59	Y59	Z59	X60	Y60	Z60	X61	Y61	Z61	X62	Y62	Z62	X63	Y63	Z63	

1268	6.335	-213.5269470214844	1775.193603515625	-1068.0322265625	-367.8905029296876	1720.278564453125	-1129.7607421875	-359.7064208984376	1705.853881835938	-985.5397949218752	-406.1265869140626	1536.928833007813	-1055.936157226563	-389.592742919922	1258.057861328125	-1028.349731445313	-261.9266052246094	1523.7646484375	-1068.781372070313	-329.1093139648438	1552.305786132813	-1211.009399414063	-178.2745971679688	1497.723876953125	-1358.426513671875	-148.1601257324219	1530.237548828125	-1332.86669921875	-110.7502517700196	1507.300170898438	-1373.44287109375	-47.97591018676759	1511.370361328125	-1380.83447265625	-34.54380035400391	1434.554443359375	-1363.5166015625	245.532699584961	1529.896484375	-1321.892700195313	299.6562805175782	1537.88916015625	-1225.093383789063	-305.8092651367188	1552.734619140625	-923.588806152344	-148.400634765625	1530.570434570313	-805.809509277344	-113.3240356445313	1538.936889648438	-838.319763183594	-80.61582183837892	1528.201416015625	-788.6737060546877	-7.371353149414064	1527.070678710938	-778.2676391601565	-0.1323719769716263	1448.178955078125	-791.6081542968752	269.0263366699219	1522.063232421875	-862.240661621094	280.6539916992188	1543.680053710938	-795.9042968750002	346.1445617675782	1558.306884765625	-874.2441406250002	-213.3562164306641	1062.440185546875	-1121.369262695313	-239.5591888427735	1090.24853515625	-874.0027465820315	-394.5384216308595	1125.560424804688	-1015.423400878906	-405.4183654785157	1094.872802734375	-1042.541381835938	-410.3168029785157	1097.488891601563	-986.0462036132815	-256.7999572753907	741.9064331054689	-1149.774169921875	-230.964096069336	662.1963500976564	-1133.78564453125	-187.2513122558594	667.5501708984376	-1107.705688476563	-262.6327209472657	615.9404907226564	-1114.32861328125	-262.3356018066407	553.5581665039064	-1101.426879882813	-265.6503601074219	553.7839965820314	-981.5863037109377	-252.8480682373047	367.7563476562501	-1015.969970703125	-294.3270874023438	325.3743591308594	-1081.118530273438	-259.9439697265626	319.0744628906251	-1048.727905273438	-284.8596191406251	244.2902984619141	-1016.741760253906	-381.5897827148438	119.9302978515625	-1035.395263671875	-344.3439941406251	133.5150756835938	-963.164001464844	-433.4393615722657	100.5889892578125	-980.2744750976565	-234.1487579345704	45.49425506591798	-974.4075317382815	-225.7899932861329	45.69417190551759	-1024.316772460938	-270.3018798828126	36.39066314697266	-1070.942016601563	-275.4718933105469	816.7010498046877	-798.8630981445315	-236.5654907226563	762.1595458984376	-786.9360351562502	-203.7708435058594	764.8359375000001	-788.6866455078127	-261.3117675781251	680.4937133789064	-793.6755371093752	-254.7470245361329	574.5778808593751	-802.7701416015627	-242.4287109375001	563.9555053710939	-916.2481079101565	-368.5802307128907	448.835418701172	-840.426452636719	-479.0098266601564	483.9097290039064	-828.3800048828127	-454.1180419921876	443.3692626953126	-830.4990844726565	-488.7422790527345	410.5678710937501	-865.462585449219	-623.3730468750001	417.619110107422	-863.2167968750002	-595.0734863281251	385.864227294922	-934.434509277344	-650.9396362304689	464.6354064941407	-939.0799560546877	-655.5234985351564	248.6961364746094	-922.1201171875002	-665.9746093750001	250.7362213134766	-876.0156250000002	-701.2963867187501	293.4787902832032	-843.7564086914065	231.3051147460938	1504.28759765625	-1256.0908203125	nan	nan	nan	nan	nan	nan	
1269	6.34	-213.4955291748047	1775.1572265625	-1067.859741210938	-367.9362182617188	1720.348266601563	-1129.617919921875	-359.7991333007813	1705.842041015625	-985.4517822265627	-406.2139587402345	1536.935791015625	-1055.90283203125	-389.5312805175782	1258.023803710938	-1028.400268554688	-262.0481262207032	1523.801147460938	-1068.72119140625	-329.1629028320313	1552.357177734375	-1211.02490234375	-178.3453369140625	1497.91650390625	-1358.490112304688	-148.1738586425782	1530.39453125	-1332.933959960938	-110.9358673095703	1507.2783203125	-1373.005126953125	-48.03289031982423	1511.56103515625	-1380.9892578125	-34.66422271728516	1434.800170898438	-1363.700561523438	245.4170532226563	1530.129638671875	-1322.254272460938	299.8907165527344	1537.988647460938	-1225.3623046875	-305.9604492187501	1552.71142578125	-923.5524902343752	-148.5092163085938	1530.461669921875	-805.7544555664065	-113.4681243896485	1538.8466796875	-838.2437133789065	-80.74461364746095	1528.0966796875	-788.5832519531252	-7.533073425292971	1526.984741210938	-778.188659667969	-0.2952051460742951	1448.07666015625	-791.5482177734377	268.9108886718751	1521.880615234375	-862.2539672851565	280.5925292968751	1543.61767578125	-795.7934570312502	345.9382934570313	1558.27880859375	-874.2664794921877	-213.2114257812501	1062.508422851563	-1121.378051757813	-239.4267730712891	1090.26025390625	-874.0623779296877	-394.2979431152345	1125.662719726563	-1015.44873046875	-405.3504638671876	1094.953491210938	-1042.590209960938	-410.2009887695314	1097.535400390625	-986.064636230469	-256.9280395507813	742.0580444335939	-1150.128540039063	-231.1098785400391	662.2097167968751	-1134.241088867188	-187.3150634765625	667.5683593750001	-1108.223266601563	-262.7630615234376	616.0713500976564	-1114.699462890625	-262.2267456054688	554.0178222656251	-1101.765625	-265.4844970703126	553.8165893554689	-981.9675903320315	-252.8497161865235	367.6932373046876	-1016.555908203125	-294.6065673828126	325.4378356933594	-1081.648071289063	-260.1192932128907	319.0105285644532	-1049.202880859375	-284.8322448730469	244.310043334961	-1017.272155761719	-381.7015686035157	119.8856964111328	-1035.7451171875	-344.0003356933594	133.1105346679688	-963.339538574219	-433.4425048828126	100.6548309326172	-980.4190673828127	-234.1278839111329	45.19357299804688	-974.6138916015627	-225.6702880859376	46.05337524414063	-1024.317138671875	-270.8512573242188	36.62850189208985	-1071.077270507813	-275.2222595214844	816.7005004882815	-798.9741210937502	-236.2427673339844	762.1052246093751	-787.1701660156252	-203.3147888183594	764.8604736328126	-789.0720825195315	-260.9699401855469	680.4348754882814	-793.9370117187502	-254.4582672119141	574.6686401367189	-803.140808105469	-242.2078094482422	564.0144042968751	-916.552673339844	-368.2905883789063	448.703094482422	-840.7026977539065	-478.6929931640626	483.7483520507814	-828.6411132812502	-453.7699584960939	443.2564392089845	-830.7895507812502	-488.3382873535157	410.448944091797	-865.8115844726565	-623.0662231445314	417.5297851562501	-863.4144287109377	-594.7618408203126	385.7671508789064	-934.6157836914065	-650.6604003906251	464.5404357910157	-939.358093261719	-654.9538574218751	248.5562591552735	-922.4984130859377	-665.7779541015626	250.5146179199219	-876.089050292969	-700.9097900390626	293.4564819335938	-844.043395996094	231.2978668212891	1504.2939453125	-1256.404663085938	nan	nan	nan	nan	nan	nan	
1270	6.345	-213.5755615234376	1775.205688476563	-1067.74072265625	-368.0313110351563	1720.487548828125	-1129.484252929688	-359.9121093750001	1705.794067382813	-985.3082275390627	-406.2235107421876	1536.94677734375	-1055.96826171875	-389.2958984375001	1258.091064453125	-1028.384033203125	-262.0569458007813	1523.911499023438	-1068.67578125	-329.1706237792969	1552.42919921875	-1211.045288085938	-178.3964538574219	1498.07080078125	-1358.536987304688	-148.1833648681641	1530.5771484375	-1332.994506835938	-110.9521408081055	1507.456665039063	-1373.095703125	-48.09362030029298	1511.824096679688	-1381.14599609375	-34.78217697143555	1435.005493164063	-1363.89892578125	245.3488922119141	1530.215698242188	-1322.528198242188	300.1961364746094	1538.020141601563	-1225.6328125	-306.0896301269532	1552.659057617188	-923.458679199219	-148.6558837890625	1530.358520507813	-805.6563720703127	-113.5967559814453	1538.802856445313	-838.089782714844	-80.81703186035158	1527.992431640625	-788.4409790039065	-7.711620330810549	1526.8779296875	-778.087585449219	-0.4234900474548341	1448.035888671875	-791.4230957031252	268.6982421875001	1521.974609375	-862.2039184570315	280.5447692871094	1543.499267578125	-795.7986450195315	345.7435607910157	1558.321899414063	-874.2761230468752	-213.0028076171876	1062.585205078125	-1121.466430664063	-239.2667541503907	1090.284301757813	-874.0469970703127	-393.9530334472657	1125.563842773438	-1015.454833984375	-405.1246337890626	1094.973266601563	-1042.60400390625	-409.9729919433595	1097.570556640625	-986.091735839844	-257.0931091308594	742.0697631835939	-1150.524291992188	-231.2842864990235	662.2332153320314	-1134.600952148438	-187.3721160888672	667.5741577148439	-1108.792602539063	-262.9373474121094	616.1249389648439	-1115.101196289063	-262.7147827148438	553.7576904296876	-1102.343994140625	-265.4881896972657	553.8627929687501	-982.3763427734377	-252.8906707763672	367.5985412597657	-1017.140686035156	-294.9127197265626	325.4906311035157	-1082.149536132813	-260.3948974609376	319.1414794921876	-1049.976196289063	-285.0041198730469	244.3279724121094	-1017.780151367188	-381.7731323242188	119.8052597045899	-1035.939208984375	-343.9871826171876	133.219467163086	-963.7017211914065	-433.4691467285157	100.6510620117188	-980.5340576171877	-234.2476806640626	45.47951126098634	-974.658630371094	-225.6985473632813	45.91736602783204	-1024.420776367188	-270.4712829589844	36.1557960510254	-1071.220092773438	-274.9181518554688	816.6446533203127	-799.0892333984377	-236.1180114746094	762.4591674804689	-787.4329223632815	-202.9108428955079	764.7802734375001	-789.3666992187502	-260.6074829101563	680.3358154296876	-794.1972656250002	-254.1853790283204	574.6285400390626	-803.378356933594	-242.0240325927735	564.0426025390626	-916.8569946289065	-367.8857421875001	448.6216735839845	-841.2393188476565	-478.3586730957032	483.5447082519532	-828.9642333984377	-453.3962707519532	443.1565551757814	-831.1574707031252	-488.488739013672	409.1060485839845	-866.9572753906252	-622.6178588867189	417.3695373535157	-863.591491699219	-594.3951416015626	385.6427612304689	-934.9007568359377	-650.4282226562501	464.4265136718751	-939.5782470703127	-654.5595703125001	248.4305419921876	-922.6992797851565	-665.3893432617189	250.3487854003907	-876.3565063476565	-700.5104370117189	293.0920715332032	-844.240173339844	231.2158355712891	1504.303833007813	-1256.822265625	nan	nan	nan	nan	nan	nan	
1271	6.350000000000001	-213.654769897461	1775.269409179688	-1067.634765625	-368.1025085449219	1720.542236328125	-1129.384643554688	-360.0471496582032	1705.790893554688	-985.2233886718752	-406.2066040039064	1536.858642578125	-1055.89306640625	-389.2747497558595	1258.057861328125	-1028.44091796875	-262.0614624023438	1523.93603515625	-1068.574951171875	-329.1480712890626	1552.474853515625	-1211.019409179688	-178.4300079345703	1498.234497070313	-1358.6025390625	-148.2722930908203	1530.739379882813	-1333.064697265625	-110.9926223754883	1507.716064453125	-1373.196899414063	-48.08635330200197	1512.0595703125	-1381.3291015625	-34.76131820678712	1435.229614257813	-1364.036010742188	245.3261718750001	1530.430419921875	-1322.841186523438	300.3570861816407	1537.925659179688	-1226.053955078125	-306.1781005859376	1552.616088867188	-923.4298095703127	-148.7348175048828	1530.28125	-805.5653076171877	-113.7551879882813	1538.756713867188	-838.0103759765627	-80.96350860595705	1527.877197265625	-788.318542480469	-7.875368118286135	1526.826782226563	-777.9722290039065	-0.5731210708618165	1447.842163085938	-791.3239746093752	268.5635070800782	1521.934204101563	-862.2092895507815	280.3897705078126	1543.441528320313	-795.767272949219	345.5321350097657	1558.370483398438	-874.309753417969	-212.8214111328126	1062.654663085938	-1121.54736328125	-238.9965515136719	1090.32861328125	-874.1199951171877	-393.7586975097657	1125.183227539063	-1015.351806640625	-405.0130615234376	1095.08056640625	-1042.562744140625	-409.6884765625001	1097.658569335938	-986.0540161132815	-257.3194580078126	742.0764770507814	-1150.92626953125	-231.5082244873047	662.2849731445314	-1135.17919921875	-187.5023345947266	667.5336303710939	-1109.362426757813	-263.1520690917969	616.1456909179689	-1115.549072265625	-262.8366088867188	554.1737670898439	-1102.79052734375	-265.3698120117188	553.8502807617189	-982.925964355469	-252.8706970214844	367.4860229492188	-1017.772644042969	-295.2821960449219	325.4605102539063	-1082.879760742188	-260.6789245605469	319.0844116210938	-1050.695068359375	-285.0965270996094	244.3158721923829	-1018.503784179688	-381.9172058105469	119.7549667358399	-1036.175659179688	-343.9353637695313	133.3774566650391	-964.1303710937502	-433.4819641113282	100.6568374633789	-980.661071777344	-234.2808227539063	45.8044776916504	-974.671569824219	-225.7762603759766	45.76961517333985	-1024.451293945313	-270.5760803222657	36.01091766357423	-1071.389892578125	-274.4493713378907	816.5601806640627	-799.3023071289065	-235.7750091552735	762.4071655273439	-787.6128540039065	-202.5728912353516	764.8289794921876	-789.5174560546877	-260.3590698242188	680.3464355468751	-794.4178466796877	-253.8479309082032	574.6245727539064	-803.5786743164065	-241.6946716308594	564.1047363281251	-917.1596679687502	-367.5335693359376	448.4669494628907	-841.6741943359377	-477.9788513183595	483.3753051757814	-829.2839965820315	-452.9332275390626	442.8815002441407	-831.5120239257815	-488.0870056152345	409.1329345703126	-867.182556152344	-622.1812133789064	417.1631164550782	-863.7163085937502	-594.0174560546876	385.5169982910157	-935.1423950195315	-650.2260742187501	464.2849731445314	-939.813415527344	-654.3958129882814	248.2180328369141	-922.869079589844	-664.7958374023439	250.3619689941407	-876.6320800781252	-700.2897949218751	292.5932922363282	-844.5498657226565	231.215316772461	1504.301635742188	-1257.194946289063	nan	nan	nan	nan	nan	nan	
